# xmcd CD database file
#
# Track frame offsets:
#	150
#	76070
#	166431
#	192054
#	210721
#	243009
#	268833
#
# Disc length: 4298 seconds
#
# Revision: 1
# Processed by: cddbd v1.4PL0 Copyright (c) Steve Scherf et al.
# Submitted via: CDex 1.50
#
DISCID=5310c807
DTITLE=The New Brubeck Quartet - A Cut Above
DYEAR=1978
DGENRE=Jazz
TTITLE0=Ellington Medley
TTITLE1=Forty Days And Sermon On The Mount
TTITLE2=Unisphere
TTITLE3=Three To Get Ready
TTITLE4=Blue Rondo A La Turk
TTITLE5=Unsquare Dance
TTITLE6=Take Five
EXTD=YEAR: 1978
EXTT0=
EXTT1=
EXTT2=
EXTT3=
EXTT4=
EXTT5=
EXTT6=
PLAYORDER=
